<?xml version="1.0" encoding="UTF-8" standalone="no"?>
<!-- Created with Inkscape (http://www.inkscape.org/) -->

<svg
   width="65.079147mm"
   height="62.502865mm"
   viewBox="0 0 65.079147 62.502865"
   version="1.1"
   id="svg5"
   xmlns="http://www.w3.org/2000/svg"
   xmlns:svg="http://www.w3.org/2000/svg">
  <defs
     id="defs2" />
  <g
     id="layer1"
     transform="translate(-84.287525,-14.170689)">
    <path
       style="fill:#000000;stroke-width:0.102657"
       d="m 90.128013,76.561964 c -1.06478,-0.15677 -2.38908,-0.84996 -3.328378,-1.7422 -1.123997,-1.06769 -1.812021,-2.18438 -2.305043,-3.74119 -0.146086,-0.4613 -0.165523,-3.02664 -0.191912,-25.32926 -0.03253,-27.49575 -0.07891,-25.544 0.643048,-27.06423 1.01659,-2.140649 2.640622,-3.524499 4.976971,-4.240899 l 0.769925,-0.23609 25.510166,-0.0303 c 17.57129,-0.0209 25.7703,0.004 26.34602,0.0787 1.85685,0.24213 3.24826,0.93608 4.61543,2.30188 0.76054,0.75977 1.01372,1.09578 1.3608,1.806019 0.23453,0.47992 0.52097,1.24215 0.63654,1.69384 0.20894,0.81669 0.21007,0.95809 0.20322,25.47391 -0.007,24.30977 -0.01,24.66387 -0.21234,25.45885 -0.57658,2.26242 -2.05151,4.10248 -4.01221,5.00547 -1.12392,0.51762 -1.54076,0.60036 -3.09099,0.61357 l -1.40886,0.012 -0.32184,-0.32115 c -0.60267,-0.60138 -0.49941,-1.60109 0.1932,-1.87035 0.15251,-0.0593 0.85723,-0.12171 1.56603,-0.1387 1.25991,-0.0302 1.30656,-0.0397 2.08548,-0.42477 1.30475,-0.64501 2.29965,-1.81424 2.85315,-3.3531 l 0.24001,-0.66727 v -24.32962 -24.32963 l -0.23866,-0.7186 c -0.31543,-0.94977 -0.6552,-1.51816 -1.33364,-2.23104 -0.66959,-0.703589 -1.26542,-1.100919 -2.22867,-1.486199 l -0.71593,-0.28637 -25.51017,-0.0287 c -18.689676,-0.021 -25.698116,0.002 -26.213126,0.088 -1.086952,0.1804 -2.163077,0.77027 -2.974533,1.630449 -0.720289,0.76355 -1.305058,1.81918 -1.505684,2.71807 -0.08071,0.36163 -0.111455,7.4013 -0.10732,24.57484 0.0064,26.68508 -0.04564,24.71547 0.690425,26.11621 0.508536,0.96775 1.381072,1.82153 2.351891,2.30133 0.739831,0.36565 0.822991,0.3828 2.130001,0.43935 1.06668,0.0462 1.42091,0.0988 1.64197,0.24387 0.57562,0.37785 0.61221,1.21668 0.0764,1.75245 -0.29642,0.29642 -0.33686,0.30591 -1.41465,0.33215 -0.61022,0.0149 -1.40977,-0.0172 -1.776768,-0.0712 z m 7.468271,5.2e-4 c -0.28878,-0.1682 -0.48762,-0.66139 -0.48762,-1.20943 0,-0.44264 0.0413,-0.54403 0.31585,-0.77503 0.29591,-0.24899 0.38388,-0.26576 1.39376,-0.26576 1.0545,0 1.08443,0.007 1.377986,0.30007 0.24518,0.24518 0.30007,0.38695 0.30007,0.77502 0,0.57937 -0.20308,0.99995 -0.561736,1.16337 -0.32684,0.14891 -2.08762,0.15777 -2.33831,0.0118 z m 7.140616,0.0139 c -0.48164,-0.20819 -0.77304,-1.09745 -0.54222,-1.6547 0.19981,-0.48237 0.56157,-0.60938 1.73573,-0.60938 0.98885,0 1.04322,0.0118 1.35945,0.29432 0.29028,0.25936 0.32848,0.35501 0.32169,0.80539 -0.009,0.58646 -0.14498,0.89683 -0.46955,1.07053 -0.28637,0.15326 -2.10362,0.22417 -2.4051,0.0938 z m 7.08269,-0.001 c -0.31764,-0.13591 -0.54432,-0.63058 -0.54432,-1.18782 0,-0.38807 0.0549,-0.52984 0.30008,-0.77502 0.29548,-0.29549 0.31742,-0.30007 1.43557,-0.30007 1.09437,0 1.14684,0.0102 1.44865,0.2823 0.55327,0.49877 0.48532,1.47436 -0.13023,1.86981 -0.27411,0.1761 -2.16233,0.25946 -2.50975,0.1108 z m 7.14144,-0.0568 c -0.6352,-0.34513 -0.72668,-1.65859 -0.1422,-2.04156 0.19018,-0.12461 0.51321,-0.16454 1.33101,-0.16454 1.03303,0 1.0936,0.0122 1.39582,0.2823 0.59769,0.53409 0.48697,1.56438 -0.20668,1.92308 -0.39953,0.2066 -1.99814,0.20709 -2.37795,7.2e-4 z m 7.2305,0.0511 c -0.31378,-0.12636 -0.57739,-0.68323 -0.57802,-1.22107 -4.1e-4,-0.37913 0.0523,-0.4996 0.32617,-0.74426 0.31908,-0.2851 0.35438,-0.2919 1.51353,-0.2919 1.17488,0 1.18985,0.003 1.4869,0.30007 0.25438,0.25438 0.30008,0.38101 0.30008,0.83152 0,0.46751 -0.042,0.57343 -0.34904,0.88048 l -0.34903,0.34903 -1.0625,-0.007 c -0.58437,-0.004 -1.16401,-0.0474 -1.28809,-0.0974 z m 7.36023,-0.0213 c -0.33242,-0.17394 -0.61557,-0.74546 -0.61578,-1.24289 -1e-4,-0.29746 0.0727,-0.46572 0.29992,-0.69293 0.29579,-0.29579 0.31642,-0.30007 1.44509,-0.30007 1.12867,0 1.1493,0.004 1.44509,0.30007 0.2526,0.25261 0.30007,0.38226 0.30007,0.81963 0,0.42754 -0.0524,0.57821 -0.29587,0.8507 -0.29027,0.32488 -0.31505,0.33179 -1.30887,0.36546 -0.69511,0.0236 -1.09354,-0.008 -1.26965,-0.1 z m -42.777156,-7.56988 c -0.60007,-0.36589 -0.683808,-0.67262 -0.729764,-2.67323 -0.04669,-2.03268 0.02958,-2.48087 0.498704,-2.93061 l 0.31614,-0.30308 2.43156,-0.0282 c 2.27066,-0.0263 2.45326,-0.0147 2.75961,0.17475 0.65058,0.40244 0.69499,0.56561 0.73208,2.69027 0.0305,1.7458 0.0146,1.96556 -0.17266,2.3889 -0.37122,0.83919 -0.52489,0.88157 -3.19725,0.88157 -2.11018,0 -2.33817,-0.0173 -2.63842,-0.20039 z m 10.337606,-0.0298 c -0.1861,-0.12704 -0.42391,-0.39194 -0.52846,-0.58868 -0.17936,-0.33752 -0.19008,-0.73243 -0.19008,-7.00274 v -6.64505 l 0.31749,-0.3616 c 0.17462,-0.19888 0.48644,-0.41181 0.69293,-0.47318 0.24037,-0.0714 1.2803,-0.0996 2.89053,-0.0783 2.82723,0.0374 2.90404,0.0565 3.29093,0.81483 0.19122,0.37482 0.19939,0.6575 0.19924,6.88798 -2.1e-4,7.24307 0.0274,6.95342 -0.70795,7.44465 -0.34006,0.22717 -0.41511,0.23302 -2.98753,0.23302 -2.56774,0 -2.64781,-0.006 -2.9771,-0.23097 z m 11.44188,0.0397 c -0.1718,-0.10477 -0.40278,-0.32402 -0.51329,-0.48723 -0.19357,-0.2859 -0.20196,-0.54007 -0.22946,-6.94785 -0.0313,-7.29558 -0.0453,-7.11315 0.57633,-7.53517 0.24387,-0.16557 0.57287,-0.18912 3.04021,-0.2176 3.12837,-0.0361 3.35339,0.005 3.77937,0.68992 l 0.22923,0.36858 0.0345,6.26206 c 0.0373,6.77695 0.0164,7.11071 -0.47469,7.56858 -0.51362,0.47887 -0.59147,0.48998 -3.42834,0.48958 -2.45032,-3.1e-4 -2.73053,-0.0181 -3.01385,-0.19087 z m 11.60459,0.0933 c -0.29715,-0.12291 -0.62118,-0.51665 -0.7557,-0.91829 -0.0841,-0.25099 -0.11684,-3.03191 -0.11672,-9.90636 1e-4,-8.89623 0.0126,-9.58177 0.17965,-9.90942 0.0987,-0.1936 0.30988,-0.44767 0.46925,-0.56461 0.27609,-0.20257 0.41994,-0.21261 3.04643,-0.21261 2.63621,0 2.76932,0.009 3.04657,0.21475 0.15946,0.11812 0.39386,0.36747 0.5209,0.55413 l 0.23098,0.33938 v 9.72202 9.72201 l -0.23303,0.34882 c -0.44863,0.67157 -0.6366,0.70855 -3.56527,0.70145 -1.43976,-0.003 -2.71014,-0.0446 -2.82306,-0.0913 z m 11.02511,-0.13509 c -0.19185,-0.12816 -0.42997,-0.39379 -0.52915,-0.59028 -0.16961,-0.336 -0.17877,-1.13271 -0.15399,-13.39464 0.0255,-12.61216 0.0327,-13.04678 0.22125,-13.32495 0.36205,-0.53418 0.52914,-0.5645 3.31683,-0.60181 2.47517,-0.0331 2.59266,-0.0259 2.86465,0.17711 0.15599,0.11641 0.37886,0.33923 0.49528,0.49515 0.21117,0.28284 0.21165,0.31317 0.21165,13.33902 0,12.94211 -0.002,13.05865 -0.2088,13.41483 -0.38998,0.67104 -0.61308,0.71826 -3.39466,0.71843 -2.40157,1.1e-4 -2.48449,-0.007 -2.82306,-0.23286 z M 91.821844,55.740784 c -0.11292,-0.0493 -0.3208,-0.21384 -0.46195,-0.36572 -0.34062,-0.36649 -0.36387,-1.2062 -0.0446,-1.61204 0.1166,-0.14824 2.89088,-2.97697 6.16505,-6.28607 3.652436,-3.69142 6.108006,-6.09556 6.354046,-6.221 0.48868,-0.24914 1.52847,-0.27559 2.06248,-0.0525 0.21409,0.0895 1.15514,0.93365 2.28726,2.05186 2.05551,2.03025 2.2217,2.13856 2.92512,1.90641 0.27528,-0.0909 1.39983,-1.17401 4.55175,-4.38425 2.3803,-2.42434 4.35043,-4.34769 4.567,-4.45855 0.47077,-0.24098 1.30621,-0.25513 1.75436,-0.0297 0.18069,0.0909 1.04782,0.87621 1.92695,1.74516 l 1.59843,1.57991 h 0.5494 c 0.54294,0 0.55737,-0.008 1.22673,-0.69293 0.37253,-0.38112 1.30003,-1.36431 2.0611,-2.18488 0.76107,-0.82056 2.61264,-2.80697 4.11461,-4.41423 3.12669,-3.34591 5.13346,-5.5632 5.08177,-5.61488 -0.0196,-0.0196 -1.25418,0.36168 -2.74356,0.84725 -1.48937,0.48557 -2.97193,0.90935 -3.29457,0.94173 -0.56733,0.0569 -0.59854,0.0469 -0.94957,-0.30409 -0.3168,-0.3168 -0.36267,-0.42627 -0.36068,-0.86084 0.002,-0.52148 0.17869,-0.84485 0.56918,-1.04402 0.1167,-0.0595 1.15609,-0.41404 2.30978,-0.78783 1.15368,-0.37378 3.09081,-1.01911 4.30473,-1.43407 3.16205,-1.0809 3.04593,-1.06178 3.86744,-0.63696 0.64874,0.33548 0.64945,0.34185 0.64945,5.8637 0,5.42556 0.009,5.33566 -0.5764,5.79609 -0.36647,0.28826 -1.04715,0.28826 -1.41361,0 -0.54634,-0.42974 -0.57581,-0.59623 -0.58362,-3.29651 -0.004,-1.37199 -0.0399,-2.5772 -0.0798,-2.67824 -0.0792,-0.20057 -0.49164,0.20062 -3.3031,3.21308 -3.72808,3.99461 -4.49172,4.81474 -4.97142,5.3392 -0.28507,0.31167 -1.43395,1.54312 -2.55308,2.73657 -1.65342,1.76322 -2.12836,2.21016 -2.53412,2.38472 -1.12699,0.48481 -1.4874,0.30538 -3.59915,-1.79185 -1.54415,-1.53354 -1.73311,-1.68865 -2.05313,-1.68534 -0.19385,0.002 -0.45008,0.0597 -0.56939,0.12832 -0.1193,0.0686 -2.05529,1.9956 -4.30218,4.28227 -2.24689,2.28668 -4.22296,4.25967 -4.39126,4.38442 -0.16831,0.12474 -0.54812,0.28099 -0.84403,0.34722 -0.9288,0.20785 -1.10751,0.094 -3.42919,-2.18448 -1.9376,-1.90155 -2.08722,-2.02524 -2.53007,-2.09165 -0.28596,-0.0429 -0.57087,-0.0249 -0.72597,0.0457 -0.24216,0.11033 -5.815756,5.70493 -9.318676,9.35379 -0.89435,0.93161 -1.77028,1.79601 -1.94652,1.9209 -0.36139,0.25608 -1.03848,0.37887 -1.347,0.24427 z"
       id="path1705" />
  </g>
</svg>
